# xmcd
#
# Track frame offsets:
#	183
#	18170
#	33210
#	46458
#	61620
#	78335
#	94655
#	112528
#	129968
#	142850
#	159035
#	176873
#	194960
#	210690
#	225970
#	242553
#
# Disc length: 3460 seconds
#
# Revision: 4268424290
# Processed by: cddbd v1.5.2PL0 Copyright (c) Steve Scherf et al.
# Submitted via: EZCDAudioConverter 4.0.2.1
#
DISCID=b90d8210
DTITLE=The Bellamy Brothers - The Very Best Of The Bellamy Brothers (Neon Cowb
DTITLE=oy)
DYEAR=1991
DGENRE=Country
TTITLE0=Neon Cowboy
TTITLE1=Big Love
TTITLE2=Too Late
TTITLE3=I Could Be Persuaded
TTITLE4=Santa Fe
TTITLE5=Crossfire
TTITLE6=Melt Down
TTITLE7=Fly Me To Eden
TTITLE8=Let Your Love Flow (Remake '91)
TTITLE9=Crazy From The Heart
TTITLE10=Your Name
TTITLE11=We Don't Wanna Go For It
TTITLE12=Forever Ain't Long Enough
TTITLE13=You'll Never Be Sorry
TTITLE14=What's This World Comming To
TTITLE15=Save Your Love
EXTD=
EXTT0=
EXTT1=
EXTT2=
EXTT3=
EXTT4=
EXTT5=
EXTT6=
EXTT7=
EXTT8=
EXTT9=
EXTT10=
EXTT11=
EXTT12=
EXTT13=
EXTT14=
EXTT15=
PLAYORDER=
